<svg width="69" height="68" viewBox="0 0 69 68" fill="none" xmlns="http://www.w3.org/2000/svg">
<g clip-path="url(#clip0_146_316)">
<path d="M52.1353 31.1667C53.8056 46.3958 60.375 51 60.375 51H8.625C8.625 51 17.25 44.9565 17.25 23.8C17.25 18.9918 19.067 14.3792 22.3014 10.9792C25.5358 7.57917 29.9288 5.66668 34.5 5.66668C35.4718 5.66668 36.4301 5.75168 37.375 5.92168M39.4738 59.5C38.9683 60.3587 38.2428 61.0715 37.3699 61.567C36.497 62.0625 35.5073 62.3233 34.5 62.3233C33.4927 62.3233 32.503 62.0625 31.6301 61.567C30.7572 61.0715 30.0317 60.3587 29.5263 59.5M82.1396 75.3181C84.4271 75.3181 86.6209 74.4225 88.2384 72.8285C89.8559 71.2344 90.7646 69.0724 90.7646 66.8181C90.7646 64.5637 89.8559 62.4017 88.2384 60.8076C86.6209 59.2136 84.4271 58.3181 82.1396 58.3181C79.8521 58.3181 77.6583 59.2136 76.0408 60.8076C74.4233 62.4017 73.5146 64.5637 73.5146 66.8181C73.5146 69.0724 74.4233 71.2344 76.0408 72.8285C77.6583 74.4225 79.8521 75.3181 82.1396 75.3181Z" stroke="#031D44" stroke-width="5" stroke-linecap="round" stroke-linejoin="round"/>
<path d="M38.8245 7.23428L38.8244 7.23432C37.5609 8.40806 36.6868 9.90152 36.3142 11.5358C35.9799 13.0019 36.0633 14.5205 36.5504 15.9414C34.8403 16.6233 33.361 17.739 32.2869 19.1706C31.1123 20.7361 30.4798 22.6031 30.4805 24.5197L30.4805 24.52C30.4824 26.7193 31.3172 28.8423 32.8297 30.5184C34.3414 32.1937 36.4331 33.316 38.7356 33.6978C41.038 34.0795 43.4131 33.6979 45.4474 32.6163C47.3374 31.6114 48.8257 30.0588 49.6847 28.1933C51.5273 28.7548 53.5173 28.7611 55.3698 28.2051C57.3734 27.6037 59.1015 26.3787 60.2588 24.727C61.4168 23.0743 61.9308 21.097 61.7084 19.1274C61.486 17.1583 60.5421 15.3269 59.0446 13.9375C59.0446 13.9374 59.0445 13.9374 59.0445 13.9373L51.8264 7.23428C50.9695 6.43844 49.9541 5.80892 48.8391 5.38002C47.7242 4.95113 46.5303 4.73077 45.3254 4.73077C44.1205 4.73077 42.9267 4.95113 41.8117 5.38002C40.6968 5.80892 39.6814 6.43844 38.8245 7.23428ZM52.207 12.8678L52.2069 12.8679C51.685 13.8735 50.753 15.2871 49.1239 16.7986C47.4946 18.3104 45.9707 19.18 44.8808 19.6691C44.5214 19.8288 44.2093 19.9477 43.9557 20.035L40.9976 17.2904C39.8569 16.2311 39.2238 14.8027 39.2238 13.3218C39.2238 11.8409 39.8569 10.4125 40.9976 9.35319C42.1395 8.29274 43.6957 7.69119 45.3254 7.69119C46.9551 7.69119 48.5112 8.29268 49.6531 9.35303C49.6531 9.35308 49.6532 9.35314 49.6532 9.35319L52.576 12.0698C52.4656 12.3405 52.3425 12.6067 52.207 12.8678ZM46.3667 22.2749C47.7181 21.6511 49.4704 20.6139 51.2969 18.9176C53.1512 17.1956 54.277 15.5433 54.9486 14.2734L56.8701 16.0577L56.8701 16.0577L56.8742 16.0615C57.4497 16.584 57.9056 17.2053 58.2175 17.8883C58.5294 18.5712 58.6916 19.3032 58.6961 20.0423C58.7006 20.7815 58.5472 21.5151 58.2436 22.201C57.9401 22.8871 57.4918 23.513 56.9229 24.0413C56.3538 24.5698 55.6756 24.9899 54.9265 25.2758C54.1773 25.5617 53.3735 25.7071 52.5617 25.7028C51.7499 25.6986 50.9478 25.5448 50.2023 25.2512C49.4568 24.9575 48.7838 24.5304 48.2214 23.9962L48.2214 23.9962L48.2172 23.9922L46.3667 22.2749ZM35.4155 20.2081C36.1374 19.483 37.0322 18.9218 38.0297 18.5698C38.2744 18.8662 38.54 19.1468 38.8249 19.4098C38.8252 19.41 38.8254 19.4102 38.8256 19.4104L46.0416 26.1115C46.0418 26.1117 46.0421 26.112 46.0423 26.1122C46.3157 26.3676 46.6063 26.6059 46.9123 26.8259C46.5366 27.7164 45.9468 28.5213 45.1825 29.1776C44.3178 29.92 43.2592 30.4466 42.1069 30.7035C40.9545 30.9605 39.75 30.9386 38.6096 30.6399C37.4693 30.3413 36.4343 29.7769 35.6022 29.0041C34.7703 28.2316 34.1693 27.2772 33.8525 26.234C33.5359 25.1912 33.5127 24.0912 33.7851 23.0381C34.0575 21.9846 34.6174 21.0097 35.4155 20.2081Z" fill="#031D44" stroke="#031D44"/>
<path d="M45.3694 8.13298C45.5674 7.94932 45.8359 7.84615 46.1157 7.84615C46.3956 7.84615 46.664 7.94932 46.8621 8.13298L48.9743 10.0945C49.1609 10.2804 49.2624 10.5263 49.2576 10.7804C49.2528 11.0345 49.1419 11.2769 48.9484 11.4566C48.7549 11.6363 48.4939 11.7393 48.2203 11.7438C47.9467 11.7482 47.6819 11.6539 47.4817 11.4807L45.3694 9.51914C45.1716 9.33524 45.0605 9.08596 45.0605 8.82606C45.0605 8.56616 45.1716 8.31688 45.3694 8.13298Z" fill="#031D44"/>
</g>
<defs>
<clipPath id="clip0_146_316">
<rect width="69" height="68" fill="white"/>
</clipPath>
</defs>
</svg>
