<svg width="40" height="40" viewBox="0 0 40 40" fill="none" xmlns="http://www.w3.org/2000/svg">
<path d="M21.18 5.13482C20.4048 4.9466 19.5958 4.9466 18.8206 5.13482C17.9346 5.34991 17.1524 5.88148 16.262 6.48659L7.92668 12.1339C7.21602 12.6142 6.59023 13.0371 6.12101 13.6141C5.70947 14.1202 5.40093 14.7019 5.21278 15.3265C4.99826 16.0386 4.99914 16.7939 5.00013 17.6516L5.00027 28.0649C5.00024 28.9435 5.00021 29.7015 5.05122 30.3258C5.10505 30.9847 5.22391 31.64 5.54524 32.2707C6.0246 33.2115 6.78951 33.9764 7.73032 34.4557C8.36095 34.7771 9.01631 34.8959 9.67522 34.9498C10.2995 35.0008 11.0574 35.0007 11.936 35.0007H28.0645C28.9431 35.0007 29.701 35.0008 30.3253 34.9498C30.9842 34.8959 31.6396 34.7771 32.2702 34.4557C33.211 33.9764 33.9759 33.2115 34.4553 32.2707C34.7766 31.64 34.8955 30.9847 34.9493 30.3258C35.0003 29.7015 35.0003 28.9435 35.0003 28.065L35.0004 17.6516C35.0014 16.7939 35.0023 16.0386 34.7878 15.3265C34.5996 14.7019 34.2911 14.1202 33.8795 13.6141C33.4103 13.0371 32.7845 12.6142 32.0739 12.1339L23.7385 6.4866C22.8481 5.88148 22.0659 5.34991 21.18 5.13482Z" fill="#C42021"/>
</svg>
