<svg width="21" height="29" viewBox="0 0 21 29" fill="none" xmlns="http://www.w3.org/2000/svg">
<path d="M11.0078 6.67145C11.2376 6.53839 11.3205 6.25088 11.1929 6.02927C8.3116 1.02476 5.72942 1.70251 4.05745 2.67051C2.38549 3.63852 0.513885 5.55045 3.3904 10.5466C3.51799 10.7682 3.80773 10.84 4.03755 10.707L11.0078 6.67145Z" fill="#FFEAAE"/>
<path d="M19.5882 20.6109L11.4239 6.43052L3.62142 10.9479L11.7855 25.128C11.885 25.3008 12.0319 25.4418 12.2095 25.532C14.4594 26.6756 16.5454 27.4695 17.7454 27.8898C18.3137 28.0889 18.9102 27.7403 19.0185 27.1465C19.2467 25.8958 19.5906 23.6937 19.7252 21.1805C19.7359 20.9814 19.6876 20.7836 19.5882 20.6109Z" fill="#FFEAAE"/>
<path d="M11.9456 25.3387L19.7069 20.9264M7.69302 8.59057L16.1039 22.9748M11.1929 6.02927C11.3205 6.25088 11.2376 6.53839 11.0078 6.67145L4.03755 10.707C3.80773 10.84 3.51799 10.7682 3.3904 10.5466C0.513885 5.55045 2.38549 3.63852 4.05745 2.67051C5.72942 1.70251 8.3116 1.02476 11.1929 6.02927ZM11.4239 6.43052L19.5882 20.6109C19.6876 20.7836 19.7359 20.9814 19.7252 21.1805C19.5906 23.6937 19.2467 25.8958 19.0185 27.1465C18.9102 27.7403 18.3137 28.0889 17.7454 27.8898C16.5454 27.4695 14.4594 26.6756 12.2095 25.532C12.0319 25.4418 11.885 25.3008 11.7855 25.128L3.62142 10.9479L11.4239 6.43052Z" stroke="#031D44" stroke-width="2" stroke-linecap="round"/>
</svg>
