<svg width="40" height="40" viewBox="0 0 40 40" fill="none" xmlns="http://www.w3.org/2000/svg">
<path fill-rule="evenodd" clip-rule="evenodd" d="M23.2145 26.7508C23.5399 26.4253 23.5399 25.8977 23.2145 25.5723L14.4268 16.7846C14.1014 16.4592 13.5737 16.4592 13.2483 16.7846L7.06601 22.9669C4.31385 25.719 4.31395 30.1812 7.06622 32.9333C9.81833 35.6851 14.2802 35.685 17.0322 32.933L23.2145 26.7508Z" fill="#031D44"/>
<path fill-rule="evenodd" clip-rule="evenodd" d="M25.5727 23.2149C25.8982 23.5403 26.4258 23.5403 26.7513 23.2149L32.9339 17.0322C35.6861 14.28 35.686 9.81786 32.9337 7.06581C30.1816 4.31392 25.7198 4.31401 22.9678 7.06601L16.7851 13.2487C16.4597 13.5741 16.4597 14.1018 16.7851 14.4272L25.5727 23.2149Z" fill="#031D44"/>
</svg>
