<svg width="28" height="28" viewBox="0 0 28 28" fill="none" xmlns="http://www.w3.org/2000/svg">
<path d="M16.6149 4.66667C17.554 4.66666 18.3291 4.66665 18.9605 4.71823C19.6162 4.77181 20.2191 4.8868 20.7853 5.17531C21.6634 5.62272 22.3773 6.33663 22.8247 7.21472C23.1132 7.78094 23.2282 8.38376 23.2818 9.03954C23.3334 9.67093 23.3333 10.446 23.3333 11.3851V11.3852V18.9482V18.9482C23.3333 19.8873 23.3334 20.6624 23.2818 21.2938C23.2282 21.9496 23.1132 22.5524 22.8247 23.1186C22.3773 23.9967 21.6634 24.7106 20.7853 25.158C20.2191 25.4465 19.6162 25.5615 18.9605 25.6151C18.3291 25.6667 17.554 25.6667 16.6149 25.6667H11.3851C10.446 25.6667 9.67092 25.6667 9.03954 25.6151C8.38375 25.5615 7.78093 25.4465 7.21471 25.158C6.33662 24.7106 5.62271 23.9967 5.1753 23.1186C4.8868 22.5524 4.7718 21.9496 4.71822 21.2938C4.66664 20.6624 4.66665 19.8873 4.66666 18.9482V18.9482V11.3852V11.3851C4.66665 10.446 4.66664 9.67093 4.71822 9.03954C4.7718 8.38376 4.8868 7.78094 5.1753 7.21472C5.62271 6.33663 6.33662 5.62272 7.21471 5.17531C7.78093 4.8868 8.38375 4.77181 9.03953 4.71823C9.67092 4.66665 10.446 4.66666 11.3851 4.66667H11.3851H11.6667V7.00001H11.4333C10.434 7.00001 9.75465 7.00091 9.22954 7.04382C8.71806 7.08561 8.45649 7.16135 8.27402 7.25432C7.83498 7.47803 7.47802 7.83498 7.25432 8.27403C7.16135 8.45649 7.0856 8.71807 7.04381 9.22955C7.00091 9.75465 7 10.434 7 11.4333V18.9C7 19.8993 7.00091 20.5787 7.04381 21.1038C7.0856 21.6153 7.16135 21.8769 7.25432 22.0593C7.47802 22.4984 7.83498 22.8553 8.27402 23.079C8.45649 23.172 8.71806 23.2477 9.22954 23.2895C9.75465 23.3324 10.434 23.3333 11.4333 23.3333H16.5667C17.566 23.3333 18.2453 23.3324 18.7705 23.2895C19.2819 23.2477 19.5435 23.172 19.726 23.079C20.165 22.8553 20.522 22.4984 20.7457 22.0593C20.8387 21.8769 20.9144 21.6153 20.9562 21.1038C20.9991 20.5787 21 19.8993 21 18.9V11.4333C21 10.434 20.9991 9.75465 20.9562 9.22955C20.9144 8.71807 20.8387 8.45649 20.7457 8.27403C20.522 7.83498 20.165 7.47803 19.726 7.25432C19.5435 7.16135 19.2819 7.08561 18.7705 7.04382C18.2453 7.00091 17.566 7.00001 16.5667 7.00001H16.3333V4.66667H16.6148H16.6149Z" fill="white"/>
<path fill-rule="evenodd" clip-rule="evenodd" d="M11.6667 14C11.6667 14.6443 11.1443 15.1667 10.5 15.1667C9.85567 15.1667 9.33333 14.6443 9.33333 14C9.33333 13.3557 9.85567 12.8333 10.5 12.8333C11.1443 12.8333 11.6667 13.3557 11.6667 14ZM15.1667 12.8333C14.5223 12.8333 14 13.3557 14 14C14 14.6443 14.5223 15.1667 15.1667 15.1667H17.5C18.1443 15.1667 18.6667 14.6443 18.6667 14C18.6667 13.3557 18.1443 12.8333 17.5 12.8333H15.1667ZM15.1667 17.5C14.5223 17.5 14 18.0223 14 18.6667C14 19.311 14.5223 19.8333 15.1667 19.8333H17.5C18.1443 19.8333 18.6667 19.311 18.6667 18.6667C18.6667 18.0223 18.1443 17.5 17.5 17.5H15.1667ZM10.5 19.8333C11.1443 19.8333 11.6667 19.311 11.6667 18.6667C11.6667 18.0223 11.1443 17.5 10.5 17.5C9.85567 17.5 9.33333 18.0223 9.33333 18.6667C9.33333 19.311 9.85567 19.8333 10.5 19.8333Z" fill="white"/>
<path fill-rule="evenodd" clip-rule="evenodd" d="M9.33333 5.83333C9.33333 3.90033 10.9003 2.33333 12.8333 2.33333H15.1667C17.0997 2.33333 18.6667 3.90033 18.6667 5.83333C18.6667 7.76632 17.0997 9.33333 15.1667 9.33333H12.8333C10.9003 9.33333 9.33333 7.76632 9.33333 5.83333ZM12.8333 4.66666C12.189 4.66666 11.6667 5.189 11.6667 5.83333C11.6667 6.47766 12.189 6.99999 12.8333 6.99999H15.1667C15.811 6.99999 16.3333 6.47766 16.3333 5.83333C16.3333 5.189 15.811 4.66666 15.1667 4.66666H12.8333Z" fill="white"/>
</svg>
