<svg width="30" height="30" viewBox="0 0 30 30" fill="none" xmlns="http://www.w3.org/2000/svg">
<path d="M23.75 5C24.4404 5 25 5.55965 25 6.25V8.75C25 9.44036 24.4404 10 23.75 10C23.0596 10 22.5 9.44036 22.5 8.75V6.25C22.5 5.55964 23.0596 5 23.75 5Z" fill="white"/>
<path d="M16.25 21.25C16.25 20.5596 15.6904 20 15 20C14.3096 20 13.75 20.5596 13.75 21.25V23.75C13.75 24.4404 14.3096 25 15 25C15.6904 25 16.25 24.4404 16.25 23.75L16.25 21.25Z" fill="white"/>
<path d="M15 5C15.6904 5 16.25 5.55964 16.25 6.25L16.25 11.25C16.25 11.9404 15.6904 12.5 15 12.5C14.3096 12.5 13.75 11.9404 13.75 11.25V6.25C13.75 5.55965 14.3096 5 15 5Z" fill="white"/>
<path d="M7.5 6.25C7.5 5.55964 6.94035 5 6.25 5C5.55964 5 5 5.55965 5 6.25L5 11.25C5 11.9404 5.55964 12.5 6.25 12.5C6.94035 12.5 7.5 11.9404 7.5 11.25L7.5 6.25Z" fill="white"/>
<path d="M7.5 21.25C7.5 20.5596 6.94035 20 6.25 20C5.55964 20 5 20.5596 5 21.25L5 23.75C5 24.4404 5.55964 25 6.25 25C6.94035 25 7.5 24.4404 7.5 23.75L7.5 21.25Z" fill="white"/>
<path d="M25 18.75C25 18.0596 24.4404 17.5 23.75 17.5C23.0596 17.5 22.5 18.0596 22.5 18.75L22.5 23.75C22.5 24.4404 23.0596 25 23.75 25C24.4404 25 25 24.4404 25 23.75V18.75Z" fill="white"/>
<path d="M20 11.25C20 13.3211 21.6789 15 23.75 15C25.8211 15 27.5 13.3211 27.5 11.25C27.5 9.17893 25.8211 7.5 23.75 7.5C21.6789 7.5 20 9.17893 20 11.25Z" fill="white"/>
<path d="M15 22.5C12.9289 22.5 11.25 20.8211 11.25 18.75C11.25 16.6789 12.9289 15 15 15C17.0711 15 18.75 16.6789 18.75 18.75C18.75 20.8211 17.0711 22.5 15 22.5Z" fill="white"/>
<path d="M6.25 17.5C4.17893 17.5 2.5 15.8211 2.5 13.75C2.5 11.6789 4.17893 10 6.25 10C8.32107 10 10 11.6789 10 13.75C10 15.8211 8.32107 17.5 6.25 17.5Z" fill="white"/>
</svg>
